<?xml version="1.0" encoding="UTF-8" standalone="no"?>
<!-- Generator: Adobe Illustrator 19.2.1, SVG Export Plug-In . SVG Version: 6.00 Build 0)  -->

<svg
   xmlns:osb="http://www.openswatchbook.org/uri/2009/osb"
   xmlns:dc="http://purl.org/dc/elements/1.1/"
   xmlns:cc="http://creativecommons.org/ns#"
   xmlns:rdf="http://www.w3.org/1999/02/22-rdf-syntax-ns#"
   xmlns:svg="http://www.w3.org/2000/svg"
   xmlns="http://www.w3.org/2000/svg"
   xmlns:xlink="http://www.w3.org/1999/xlink"
   xmlns:sodipodi="http://sodipodi.sourceforge.net/DTD/sodipodi-0.dtd"
   xmlns:inkscape="http://www.inkscape.org/namespaces/inkscape"
   version="1.1"
   id="svg4619"
   inkscape:version="0.91 r13725"
   sodipodi:docname="marker-151red30.svg"
   x="0px"
   y="0px"
   width="20"
   height="28"
   viewBox="0 0 20 27.999999"
   xml:space="preserve"><metadata
     id="metadata3388"><rdf:RDF><cc:Work
         rdf:about=""><dc:format>image/svg+xml</dc:format><dc:type
           rdf:resource="http://purl.org/dc/dcmitype/StillImage" /><dc:title></dc:title></cc:Work></rdf:RDF></metadata><defs
     id="defs3386"><linearGradient
       id="linearGradient5659"
       osb:paint="solid"><stop
         style="stop-color:#000000;stop-opacity:1;"
         offset="0"
         id="stop5661" /></linearGradient><linearGradient
       inkscape:collect="always"
       xlink:href="#linearGradient5659"
       id="linearGradient5663"
       x1="0"
       y1="0"
       x2="1"
       y2="0"
       gradientUnits="userSpaceOnUse"
       gradientTransform="matrix(0.94867656,0,0,0.93329788,2.8847356,7.0005299)" /></defs><sodipodi:namedview
     pagecolor="#ffffff"
     bordercolor="#666666"
     borderopacity="1"
     objecttolerance="10"
     gridtolerance="10"
     guidetolerance="10"
     inkscape:pageopacity="0"
     inkscape:pageshadow="2"
     inkscape:window-width="1366"
     inkscape:window-height="719"
     id="namedview3384"
     showgrid="false"
     inkscape:zoom="16"
     inkscape:cx="3.3701"
     inkscape:cy="12.062673"
     inkscape:window-x="0"
     inkscape:window-y="0"
     inkscape:window-maximized="1"
     inkscape:current-layer="svg4619"
     fit-margin-top="0"
     fit-margin-left="0"
     fit-margin-right="0"
     fit-margin-bottom="0" /><path
     id="path4133"
     inkscape:connector-curvature="0"
     d="M 10,-9.5367432e-7 C 5.3847029,-9.5367432e-7 0,2.7747989 0,9.8378921 0,14.630559 7.6923514,25.225201 10,27.999999 12.051307,25.225201 20,14.882932 20,9.8378921 20,2.7747989 14.615297,-9.5367431e-7 10,-9.5367431e-7 Z" /><path
     style="fill:#d40000"
     d="M 9.649285,27.522231 C 8.589163,26.209084 6.8805343,23.842038 5.6263081,21.949009 2.6288974,17.424953 0.7916618,13.803149 0.2060788,11.263925 -0.1126921,9.8816615 0.0282674,7.9063799 0.5610973,6.2890025 0.7917513,5.5888649 1.355693,4.4816795 1.7859816,3.8841906 2.2208825,3.2802973 3.2047284,2.3138151 3.822415,1.8836985 5.7019967,0.57487993 8.299826,-0.11625925 10.707478,0.05196329 c 4.534688,0.31683841 7.890361,2.89500021 8.907001,6.84324421 0.372008,1.4447379 0.453273,3.1042454 0.208837,4.2645365 -0.270228,1.28273 -0.824853,2.709232 -1.792664,4.610771 -1.482267,2.912323 -3.759525,6.419873 -7.103638,10.941386 -0.495652,0.670158 -0.906468,1.225038 -0.912925,1.233065 -0.0064,0.0081 -0.170618,-0.182199 -0.364804,-0.422735 z"
     id="path3409"
     inkscape:connector-curvature="0" /><path
     style="fill:#d40000"
     d=""
     id="path3411"
     inkscape:connector-curvature="0" /><path
     style="fill:#d40000;stroke:url(#linearGradient5663);stroke-width:0;stroke-miterlimit:4;stroke-dasharray:none;stroke-opacity:1"
     d=""
     id="path3413"
     inkscape:connector-curvature="0" /></svg>
